<?xml version="1.0" encoding="UTF-8"?> <!-- Generator: Adobe Illustrator 16.0.0, SVG Export Plug-In . SVG Version: 6.00 Build 0) --> <svg xmlns="http://www.w3.org/2000/svg" xmlns:xlink="http://www.w3.org/1999/xlink" version="1.1" id="Layer_1" x="0px" y="0px" width="300px" height="70px" viewBox="0 0 300 70" xml:space="preserve"> <g> <g> <path d="M51.636,34.574c-0.585-0.277-1.238-0.418-1.96-0.418c-1.098,0-2.101,0.326-2.942,0.907 c-0.837,0.563-1.516,1.38-1.911,2.311c-0.119,0.258-0.213,0.541-0.258,0.819h9.849c-0.116-0.655-0.35-1.236-0.678-1.774 C53.223,35.602,52.499,34.948,51.636,34.574z"></path> <path d="M61.894,20.549H6.78c-2.658,0-4.813,2.157-4.813,4.818v23.092c0,2.656,2.156,4.817,4.813,4.817h55.114 c2.658,0,4.813-2.161,4.813-4.817V25.367C66.708,22.706,64.552,20.549,61.894,20.549z M21.458,34.815h-2.126v11.124 c0,0.773-0.627,1.397-1.4,1.397s-1.397-0.624-1.397-1.397V34.815h-2.283c-0.772,0-1.397-0.629-1.397-1.401 s0.625-1.396,1.397-1.396h2.283v-5.55c0-0.771,0.625-1.396,1.397-1.396s1.4,0.625,1.4,1.396v5.55h2.126 c0.771,0,1.398,0.625,1.398,1.396S22.229,34.815,21.458,34.815z M38.493,45.939c0,0.773-0.625,1.397-1.397,1.397 c-0.77,0-1.396-0.624-1.396-1.397v-7.776c0-0.889-0.225-1.675-0.6-2.306c-0.378-0.634-0.898-1.11-1.54-1.396 c-0.425-0.193-0.912-0.3-1.467-0.302c-0.833,0.001-1.597,0.25-2.235,0.68c-0.642,0.432-1.151,1.046-1.455,1.761 c-0.198,0.48-0.312,1.005-0.312,1.563v7.776c0,0.773-0.625,1.397-1.397,1.397c-0.772,0-1.396-0.624-1.396-1.397v-7.776V26.468 c0-0.771,0.625-1.396,1.396-1.396c0.772,0,1.397,0.625,1.397,1.396v6.197c0.418-0.303,0.873-0.561,1.355-0.767 c0.815-0.342,1.712-0.535,2.647-0.535c0.701,0,1.376,0.106,2.001,0.312c0.628,0.205,1.208,0.502,1.721,0.882 c1.029,0.752,1.792,1.813,2.229,3.022c0.299,0.802,0.449,1.676,0.449,2.583V45.939z M57.329,39.593 c0,0.373-0.141,0.722-0.397,0.979s-0.63,0.418-0.979,0.418H44.636c0.161,0.492,0.394,0.958,0.676,1.38 c0.559,0.84,1.377,1.516,2.309,1.913c0.63,0.255,1.332,0.395,2.056,0.395c1.097,0,2.099-0.324,2.94-0.907 c0.232-0.212,0.559-0.327,0.886-0.327c0.795,0,1.425,0.628,1.425,1.422c0,0.422-0.187,0.794-0.491,1.052 c0,0.021-0.023,0.021-0.045,0.021c-0.071,0.07-0.142,0.118-0.213,0.164c-1.281,0.885-2.845,1.376-4.501,1.376 c-1.658,0-3.219-0.491-4.503-1.376c-1.284-0.864-2.312-2.101-2.917-3.545c-0.42-0.958-0.631-2.03-0.631-3.128 c0-1.658,0.488-3.221,1.377-4.505c0.863-1.282,2.076-2.31,3.521-2.917c0.983-0.42,2.031-0.653,3.152-0.653 c1.097,0,2.17,0.233,3.102,0.653c0.935,0.419,1.752,1.028,2.428,1.751c1.377,1.492,2.124,3.5,2.124,5.67V39.593z"></path> </g> <g> <path d="M214.423,1.838c-1.872,0-3.388,1.513-3.388,3.387v17.971v8.722V49.89c0,1.869,1.516,3.386,3.388,3.386 c1.87,0,3.392-1.517,3.392-3.386V31.918v-8.722V5.225C217.815,3.351,216.293,1.838,214.423,1.838z"></path> <path d="M124.508,18.765c-2.528-1.71-5.598-2.712-8.869-2.712c-2.185,0-4.28,0.441-6.177,1.25 c-2.854,1.207-5.268,3.212-6.978,5.742c-1.71,2.526-2.712,5.601-2.709,8.874V49.89c0,1.869,1.517,3.386,3.388,3.386 c1.872,0,3.388-1.517,3.388-3.386V31.918c0-1.263,0.253-2.453,0.713-3.538c0.687-1.626,1.842-3.021,3.297-3.996 c1.454-0.983,3.183-1.549,5.078-1.549c1.261,0,2.448,0.25,3.533,0.709c1.625,0.684,3.019,1.841,3.998,3.295 c0.983,1.454,1.548,3.182,1.551,5.078V49.89c0,1.869,1.517,3.386,3.388,3.386c1.872,0,3.391-1.517,3.391-3.386V31.918 c0-2.178-0.44-4.276-1.247-6.175C129.044,22.89,127.036,20.473,124.508,18.765z"></path> <path d="M200.715,1.838c-1.87,0-3.388,1.513-3.388,3.387v17.971v8.722V49.89c0,1.869,1.518,3.386,3.388,3.386 c1.872,0,3.392-1.517,3.392-3.386V31.918v-8.722V5.225C204.107,3.351,202.587,1.838,200.715,1.838z"></path> <path d="M152.49,17.722h-4.665V5.225c0-1.874-1.519-3.387-3.391-3.387c-1.872,0-3.388,1.513-3.388,3.387v12.497h-4.665 c-1.873,0-3.386,1.517-3.386,3.389c0,1.871,1.514,3.39,3.386,3.39h4.665v7.417V49.89c0,1.869,1.517,3.386,3.388,3.386 c1.872,0,3.391-1.517,3.391-3.386V31.918v-7.417h4.665c1.872,0,3.387-1.519,3.387-3.39 C155.876,19.239,154.362,17.722,152.49,17.722z"></path> <path d="M262.234,1.518c-1.971,0-3.869,0.401-5.586,1.13c-2.581,1.09-4.767,2.909-6.313,5.197 c-1.545,2.283-2.455,5.063-2.455,8.025v1.691h-3.93c-1.867,0-3.389,1.518-3.389,3.39c0,1.869,1.521,3.386,3.389,3.386h3.93v0.366 V49.89c0,1.869,1.52,3.386,3.392,3.386s3.392-1.517,3.392-3.386V24.703v-0.366h6.579c1.873,0,3.389-1.517,3.389-3.386 c0-1.872-1.516-3.39-3.389-3.39h-6.579V15.87c0-1.057,0.21-2.046,0.591-2.949c0.576-1.354,1.535-2.515,2.745-3.332 c1.216-0.82,2.653-1.29,4.235-1.29c1.87,0,3.39-1.518,3.39-3.39C265.624,3.036,264.104,1.518,262.234,1.518z"></path> <path d="M182.182,17.525c-2.169-0.979-4.596-1.493-7.166-1.493c-2.563,0-5.014,0.514-7.254,1.471 c-3.339,1.4-6.184,3.757-8.192,6.745c-2.007,2.962-3.171,6.556-3.171,10.408c0,2.567,0.512,5.014,1.47,7.255 c1.398,3.337,3.756,6.184,6.743,8.19c2.966,2.007,6.557,3.175,10.404,3.175c3.853,0,7.471-1.191,10.432-3.223 c0.07-0.021,0.445-0.324,0.56-0.443c0.607-0.584,0.958-1.375,0.958-2.285c0-1.773-1.447-3.22-3.241-3.22 c-0.539,0-1.151,0.063-1.801,0.561c-1.891,1.446-4.313,2.146-6.907,2.146c-1.678,0-3.287-0.328-4.736-0.958 c-2.169-0.909-4.035-2.449-5.344-4.411c-0.675-0.979-1.191-2.052-1.537-3.195h26.087c0.864,0,1.68-0.353,2.288-0.934 c0.606-0.604,0.956-1.447,0.956-2.288v-0.37c0-5.02-1.772-9.664-4.899-13.07C186.266,19.883,184.352,18.483,182.182,17.525z M163.186,31.783c0.165-0.629,0.375-1.26,0.63-1.866c0.913-2.169,2.452-4.038,4.411-5.343c1.936-1.331,4.248-2.077,6.789-2.077 c1.682,0,3.199,0.326,4.553,0.932c2.009,0.887,3.639,2.381,4.832,4.294c0.721,1.214,1.283,2.566,1.585,4.06H163.186z"></path> <path d="M294.647,18.778c-1.888,0-3.407,1.516-3.407,3.408v15.215c0,1.352-0.207,2.589-0.63,3.684 c-0.605,1.68-1.607,3.011-2.846,3.92c-0.631,0.467-1.329,0.843-2.1,1.098c-0.794,0.233-1.633,0.372-2.589,0.397 c-1.261-0.025-2.357-0.258-3.313-0.701c-1.45-0.651-2.64-1.725-3.48-3.15c-0.862-1.445-1.374-3.243-1.374-5.247V22.187 c0-1.892-1.519-3.408-3.385-3.408s-3.386,1.516-3.386,3.408v15.215c0,2.098,0.353,4.15,1.029,6.018 c1.023,2.823,2.824,5.297,5.228,7.073c1.19,0.861,2.545,1.586,4.013,2.053c1.47,0.467,3.033,0.722,4.669,0.722 c2.191,0,4.246-0.443,6.11-1.282c0.725-0.328,1.424-0.7,2.076-1.146v1.776c0,1.259-0.252,2.449-0.721,3.544 c-0.677,1.613-1.821,3.011-3.291,3.993c-1.447,0.979-3.173,1.54-5.063,1.562c-1.656-0.021-3.218-0.395-4.551-1.164 c-0.396-0.188-0.862-0.282-1.331-0.282c-1.889,0-3.405,1.519-3.405,3.383c0,1.107,0.527,2.062,1.347,2.692 c0.011,0.006,0.091,0.063,0.111,0.076c0.239,0.148,0.5,0.275,0.758,0.406l0.049,0.024c2.098,1.049,4.504,1.634,7.022,1.634 c2.17,0,4.271-0.445,6.159-1.236c2.871-1.213,5.274-3.22,6.978-5.765c1.729-2.519,2.731-5.578,2.71-8.867V22.187 C298.034,20.294,296.513,18.778,294.647,18.778z"></path> <path d="M90.488,5.334c-2.383,0-4.315,1.933-4.315,4.319c0,2.381,1.932,4.315,4.315,4.315c2.385,0,4.317-1.934,4.317-4.315 C94.805,7.267,92.874,5.334,90.488,5.334z"></path> <path d="M91.464,20.564c-0.016,0-0.032-0.001-0.049-0.001h0l0,0h-8.151c-1.873,0-3.387,1.516-3.387,3.388 c0,1.871,1.514,3.391,3.387,3.391h4.763V49.89c0,1.873,1.517,3.386,3.389,3.386c1.872,0,3.39-1.513,3.39-3.386V23.954 c0-0.001,0-0.001,0-0.001V23.95C94.805,22.095,93.314,20.59,91.464,20.564z"></path> <path d="M232.516,5.334c-2.382,0-4.313,1.933-4.313,4.319c0,2.381,1.931,4.315,4.313,4.315c2.387,0,4.317-1.934,4.317-4.315 C236.833,7.267,234.903,5.334,232.516,5.334z"></path> <path d="M233.443,20.563h-8.15c-1.874,0-3.387,1.516-3.387,3.388c0,1.871,1.513,3.391,3.387,3.391h4.763V49.89 c0,1.873,1.516,3.386,3.388,3.386s3.391-1.513,3.391-3.386V23.954c0-0.001,0-0.001,0-0.001V23.95 C236.833,22.079,235.317,20.563,233.443,20.563z"></path> </g> </g> </svg> 